<svg width="21" height="20" viewBox="0 0 21 20" fill="none" xmlns="http://www.w3.org/2000/svg">
<path d="M6.843 1.27197H2.948C2.43169 1.2725 1.93667 1.47777 1.57149 1.84276C1.20632 2.20775 1.00079 2.70267 1 3.21897V16.852C1 17.927 1.872 18.799 2.948 18.799H6.843C7.35913 18.7982 7.8539 18.5928 8.21886 18.2278C8.58382 17.8629 8.78921 17.3681 8.79 16.852V3.21897C8.78921 2.70284 8.58382 2.20807 8.21886 1.84311C7.8539 1.47815 7.35913 1.27277 6.843 1.27197Z" stroke="#8F8F8F" stroke-width="1.5" stroke-linecap="round" stroke-linejoin="round"/>
<path d="M8.7901 5.98495L11.9061 17.67C12.0412 18.1679 12.3682 18.592 12.8155 18.8494C13.2627 19.1067 13.7937 19.1763 14.2921 19.043L18.0601 18.069C18.5585 17.9345 18.9831 17.6076 19.2406 17.1602C19.4981 16.7128 19.5673 16.1814 19.4331 15.683L15.9081 2.43996C15.7737 1.94155 15.4468 1.51693 14.9994 1.25946C14.5519 1.00199 14.0206 0.932747 13.5221 1.06696L9.7641 2.06995C9.3581 2.18095 9.0001 2.41996 8.7411 2.75196M4.8951 15.434C5.29385 15.434 5.67628 15.2756 5.95824 14.9936C6.2402 14.7116 6.3986 14.3292 6.3986 13.9305C6.3986 13.5317 6.2402 13.1493 5.95824 12.8673C5.67628 12.5854 5.29385 12.427 4.8951 12.427C4.49635 12.427 4.11393 12.5854 3.83197 12.8673C3.55001 13.1493 3.3916 13.5317 3.3916 13.9305C3.3916 14.3292 3.55001 14.7116 3.83197 14.9936C4.11393 15.2756 4.49635 15.434 4.8951 15.434Z" stroke="#8F8F8F" stroke-width="1.5" stroke-linecap="round" stroke-linejoin="round"/>
<path d="M14.9151 15.296C15.3134 15.296 15.6955 15.1377 15.9772 14.8561C16.2588 14.5744 16.4171 14.1923 16.4171 13.794C16.4171 13.3956 16.2588 13.0136 15.9772 12.7319C15.6955 12.4502 15.3134 12.292 14.9151 12.292C14.5167 12.292 14.1347 12.4502 13.853 12.7319C13.5713 13.0136 13.4131 13.3956 13.4131 13.794C13.4131 14.1923 13.5713 14.5744 13.853 14.8561C14.1347 15.1377 14.5167 15.296 14.9151 15.296Z" stroke="#8F8F8F" stroke-width="1.5" stroke-linecap="round" stroke-linejoin="round"/>
</svg>
