<svg width="21" height="20" viewBox="0 0 21 20" fill="none" xmlns="http://www.w3.org/2000/svg">
<path d="M7.3 20L6.9 16.8C6.68333 16.7167 6.47933 16.6167 6.288 16.5C6.09667 16.3833 5.909 16.2583 5.725 16.125L2.75 17.375L0 12.625L2.575 10.675C2.55833 10.5583 2.55 10.446 2.55 10.338V9.663C2.55 9.55433 2.55833 9.44167 2.575 9.325L0 7.375L2.75 2.625L5.725 3.875C5.90833 3.74167 6.1 3.61667 6.3 3.5C6.5 3.38333 6.7 3.28333 6.9 3.2L7.3 0H12.8L13.2 3.2C13.4167 3.28333 13.621 3.38333 13.813 3.5C14.005 3.61667 14.1923 3.74167 14.375 3.875L17.35 2.625L20.1 7.375L17.525 9.325C17.5417 9.44167 17.55 9.55433 17.55 9.663V10.337C17.55 10.4457 17.5333 10.5583 17.5 10.675L20.075 12.625L17.325 17.375L14.375 16.125C14.1917 16.2583 14 16.3833 13.8 16.5C13.6 16.6167 13.4 16.7167 13.2 16.8L12.8 20H7.3ZM9.05 18H11.025L11.375 15.35C11.8917 15.2167 12.371 15.021 12.813 14.763C13.255 14.505 13.659 14.1923 14.025 13.825L16.5 14.85L17.475 13.15L15.325 11.525C15.4083 11.2917 15.4667 11.046 15.5 10.788C15.5333 10.53 15.55 10.2673 15.55 10C15.55 9.73267 15.5333 9.47033 15.5 9.213C15.4667 8.95567 15.4083 8.70967 15.325 8.475L17.475 6.85L16.5 5.15L14.025 6.2C13.6583 5.81667 13.2543 5.496 12.813 5.238C12.3717 4.98 11.8923 4.784 11.375 4.65L11.05 2H9.075L8.725 4.65C8.20833 4.78333 7.72933 4.97933 7.288 5.238C6.84667 5.49667 6.44233 5.809 6.075 6.175L3.6 5.15L2.625 6.85L4.775 8.45C4.69167 8.7 4.63333 8.95 4.6 9.2C4.56667 9.45 4.55 9.71667 4.55 10C4.55 10.2667 4.56667 10.525 4.6 10.775C4.63333 11.025 4.69167 11.275 4.775 11.525L2.625 13.15L3.6 14.85L6.075 13.8C6.44167 14.1833 6.846 14.5043 7.288 14.763C7.73 15.0217 8.209 15.2173 8.725 15.35L9.05 18ZM10.1 13.5C11.0667 13.5 11.8917 13.1583 12.575 12.475C13.2583 11.7917 13.6 10.9667 13.6 10C13.6 9.03333 13.2583 8.20833 12.575 7.525C11.8917 6.84167 11.0667 6.5 10.1 6.5C9.11667 6.5 8.28733 6.84167 7.612 7.525C6.93667 8.20833 6.59933 9.03333 6.6 10C6.60067 10.9667 6.93833 11.7917 7.613 12.475C8.28767 13.1583 9.11667 13.5 10.1 13.5Z" fill="#8F8F8F"/>
</svg>
